#tb 0: 1/25
0,          9,          9,        1,   622080, 0x4440caef
0,         10,         10,        1,   622080, 0xce67e69d
0,         11,         11,        1,   622080, 0x1dbdc653
0,         12,         12,        1,   622080, 0x82c591d1
0,         13,         13,        1,   622080, 0x8193740b
0,         14,         14,        1,   622080, 0xcb219711
0,         15,         15,        1,   622080, 0x1870783b
0,         16,         16,        1,   622080, 0x7080590b
0,         17,         17,        1,   622080, 0x6df4175d
0,         18,         18,        1,   622080, 0x6b530e95
0,         19,         19,        1,   622080, 0x7f9d66f7
0,         20,         20,        1,   622080, 0x338cda81
0,         21,         21,        1,   622080, 0xb13797f8
0,         22,         22,        1,   622080, 0xb51e7ca4
0,         23,         23,        1,   622080, 0x353eed75
0,         24,         24,        1,   622080, 0xf93e92b0
0,         25,         25,        1,   622080, 0xd0811094
0,         26,         26,        1,   622080, 0xb04a3141
0,         27,         27,        1,   622080, 0x4ab84909
0,         28,         28,        1,   622080, 0xa0fcb8fb
0,         29,         29,        1,   622080, 0x9003aebb
0,         30,         30,        1,   622080, 0x153faa3e
0,         31,         31,        1,   622080, 0xae724063
0,         32,         32,        1,   622080, 0xeb4de77a
0,         33,         33,        1,   622080, 0x209ed8c7
0,         34,         34,        1,   622080, 0xe2bbac96
0,         35,         35,        1,   622080, 0xe945441e
0,         36,         36,        1,   622080, 0x8f8cbd5f
0,         37,         37,        1,   622080, 0xbc3cf717
0,         38,         38,        1,   622080, 0x0109f125
0,         39,         39,        1,   622080, 0x230c373f
